<svg width="811" height="600" viewBox="0 0 811 600" fill="none" xmlns="http://www.w3.org/2000/svg">
<g id="undraw_on_the_office_re_cxds 1" clip-path="url(#clip0_1_2)">
<path id="Vector" d="M707.724 374.684C707.724 369.324 705.924 364.975 703.714 364.965H101.224C99.0036 364.975 97.2136 369.324 97.2036 374.684V595.327C97.2037 595.825 97.0185 596.305 96.6842 596.674C96.3498 597.042 95.8902 597.273 95.3949 597.321C93.7778 597.476 92.1607 597.621 90.5436 597.755C90.5036 597.755 90.4636 597.764 90.4236 597.764C89.5436 597.844 88.6636 597.904 87.7836 597.975H87.7736C87.321 597.138 86.8735 596.293 86.4314 595.442C86.2818 595.155 86.2037 594.836 86.2036 594.513V362.074C86.2036 360.594 86.2636 359.105 86.3636 357.635C86.5064 355.616 86.7567 353.606 87.1136 351.615C88.8036 342.325 92.6236 336.035 96.9636 336.015H707.964C708.597 336.019 709.223 336.151 709.804 336.404C710.656 336.782 711.427 337.322 712.074 337.994C712.951 338.906 713.701 339.932 714.304 341.044C716.444 344.814 717.974 350.434 718.514 356.974C718.514 357.034 718.524 357.094 718.524 357.154C718.664 358.775 718.734 360.424 718.724 362.074L718.864 383.504L718.954 396.284L719.224 436.384L719.324 450.624L719.764 596.824C719.764 597.355 719.553 597.864 719.178 598.239C718.803 598.614 718.294 598.824 717.764 598.824H709.724C709.193 598.824 708.684 598.614 708.309 598.239C707.934 597.864 707.724 597.355 707.724 596.824V374.684Z" fill="#88847D"/>
<path id="Vector_2" d="M544.008 235.739H479.088C478.17 235.74 477.29 236.106 476.641 236.756C475.993 237.407 475.629 238.288 475.63 239.206V341.76H547.475V239.206C547.475 238.751 547.386 238.3 547.212 237.879C547.038 237.458 546.782 237.076 546.46 236.754C546.138 236.432 545.756 236.176 545.335 236.002C544.914 235.828 544.463 235.739 544.008 235.739V235.739ZM511.766 294.008C509.736 293.999 507.792 293.188 506.356 291.753C504.921 290.317 504.11 288.373 504.101 286.343V274.514C504.103 272.482 504.912 270.535 506.349 269.099C507.786 267.663 509.735 266.857 511.766 266.857C513.798 266.857 515.747 267.663 517.184 269.099C518.621 270.535 519.43 272.482 519.432 274.514V286.343C519.423 288.373 518.612 290.317 517.177 291.753C515.741 293.188 513.797 293.999 511.766 294.008Z" fill="#2F2E41"/>
<path id="Vector_3" d="M475.407 338.479V348.374C475.408 348.886 475.612 349.378 475.975 349.74C476.337 350.103 476.829 350.307 477.341 350.308H545.764C546.276 350.306 546.766 350.101 547.129 349.739C547.491 349.377 547.696 348.886 547.698 348.374V338.479H475.407Z" fill="#3F3D56"/>
<path id="Vector_4" d="M651.508 75.6926H374.003C371.619 75.6964 369.334 76.6452 367.648 78.331C365.962 80.0169 365.013 82.3024 365.009 84.6866V271.948C365.012 274.333 365.96 276.619 367.646 278.305C369.332 279.991 371.619 280.94 374.003 280.942H651.508C653.893 280.94 656.179 279.991 657.866 278.305C659.552 276.619 660.5 274.333 660.502 271.948V84.6866C660.499 82.3024 659.55 80.0169 657.864 78.331C656.178 76.6452 653.893 75.6964 651.508 75.6926V75.6926Z" fill="#3F3D56"/>
<path id="Vector_5" d="M649.192 82.1888H376.322C375.045 82.1916 373.822 82.7006 372.92 83.6042C372.019 84.5078 371.512 85.7322 371.512 87.0088V269.629C371.514 270.904 372.022 272.126 372.923 273.028C373.825 273.929 375.047 274.437 376.322 274.439H649.192C650.467 274.437 651.689 273.929 652.591 273.028C653.492 272.126 654 270.904 654.002 269.629V87.0088C654.002 85.7322 653.495 84.5078 652.594 83.6042C651.692 82.7006 650.469 82.1916 649.192 82.1888V82.1888Z" fill="white"/>
<path id="Vector_6" d="M596.042 353.751H433.699C433.254 353.751 432.816 353.652 432.414 353.461C432.013 353.27 431.66 352.991 431.38 352.646C431.1 352.301 430.9 351.898 430.796 351.466C430.691 351.034 430.685 350.584 430.776 350.15L433.295 338.186C433.439 337.516 433.807 336.916 434.338 336.485C434.87 336.054 435.533 335.817 436.217 335.815H593.523C594.207 335.817 594.87 336.054 595.402 336.485C595.933 336.916 596.301 337.516 596.445 338.186L598.964 350.15C599.055 350.584 599.049 351.034 598.944 351.466C598.84 351.898 598.64 352.301 598.36 352.646C598.08 352.991 597.727 353.27 597.326 353.461C596.925 353.652 596.486 353.751 596.041 353.751H596.042Z" fill="#2F2E41"/>
<path id="Vector_7" d="M441.882 337.969H437.858C437.589 337.969 437.37 338.187 437.37 338.457V340.481C437.37 340.75 437.589 340.969 437.858 340.969H441.882C442.152 340.969 442.37 340.75 442.37 340.481V338.457C442.37 338.187 442.152 337.969 441.882 337.969Z" fill="#3F3D56"/>
<path id="Vector_8" d="M451.882 337.969H447.858C447.589 337.969 447.37 338.187 447.37 338.457V340.481C447.37 340.75 447.589 340.969 447.858 340.969H451.882C452.152 340.969 452.37 340.75 452.37 340.481V338.457C452.37 338.187 452.152 337.969 451.882 337.969Z" fill="#3F3D56"/>
<path id="Vector_9" d="M461.882 337.969H457.858C457.589 337.969 457.37 338.187 457.37 338.457V340.481C457.37 340.75 457.589 340.969 457.858 340.969H461.882C462.152 340.969 462.37 340.75 462.37 340.481V338.457C462.37 338.187 462.152 337.969 461.882 337.969Z" fill="#3F3D56"/>
<path id="Vector_10" d="M471.882 337.969H467.858C467.589 337.969 467.37 338.187 467.37 338.457V340.481C467.37 340.75 467.589 340.969 467.858 340.969H471.882C472.152 340.969 472.37 340.75 472.37 340.481V338.457C472.37 338.187 472.152 337.969 471.882 337.969Z" fill="#3F3D56"/>
<path id="Vector_11" d="M481.882 337.969H477.858C477.589 337.969 477.37 338.187 477.37 338.457V340.481C477.37 340.75 477.589 340.969 477.858 340.969H481.882C482.152 340.969 482.37 340.75 482.37 340.481V338.457C482.37 338.187 482.152 337.969 481.882 337.969Z" fill="#3F3D56"/>
<path id="Vector_12" d="M491.882 337.969H487.858C487.589 337.969 487.37 338.187 487.37 338.457V340.481C487.37 340.75 487.589 340.969 487.858 340.969H491.882C492.152 340.969 492.37 340.75 492.37 340.481V338.457C492.37 338.187 492.152 337.969 491.882 337.969Z" fill="#3F3D56"/>
<path id="Vector_13" d="M501.882 337.969H497.858C497.589 337.969 497.37 338.187 497.37 338.457V340.481C497.37 340.75 497.589 340.969 497.858 340.969H501.882C502.152 340.969 502.37 340.75 502.37 340.481V338.457C502.37 338.187 502.152 337.969 501.882 337.969Z" fill="#3F3D56"/>
<path id="Vector_14" d="M511.882 337.969H507.858C507.589 337.969 507.37 338.187 507.37 338.457V340.481C507.37 340.75 507.589 340.969 507.858 340.969H511.882C512.152 340.969 512.37 340.75 512.37 340.481V338.457C512.37 338.187 512.152 337.969 511.882 337.969Z" fill="#3F3D56"/>
<path id="Vector_15" d="M521.882 337.969H517.858C517.589 337.969 517.37 338.187 517.37 338.457V340.481C517.37 340.75 517.589 340.969 517.858 340.969H521.882C522.152 340.969 522.37 340.75 522.37 340.481V338.457C522.37 338.187 522.152 337.969 521.882 337.969Z" fill="#3F3D56"/>
<path id="Vector_16" d="M531.882 337.969H527.858C527.589 337.969 527.37 338.187 527.37 338.457V340.481C527.37 340.75 527.589 340.969 527.858 340.969H531.882C532.152 340.969 532.37 340.75 532.37 340.481V338.457C532.37 338.187 532.152 337.969 531.882 337.969Z" fill="#3F3D56"/>
<path id="Vector_17" d="M541.882 337.969H537.858C537.589 337.969 537.37 338.187 537.37 338.457V340.481C537.37 340.75 537.589 340.969 537.858 340.969H541.882C542.152 340.969 542.37 340.75 542.37 340.481V338.457C542.37 338.187 542.152 337.969 541.882 337.969Z" fill="#3F3D56"/>
<path id="Vector_18" d="M551.882 337.969H547.858C547.589 337.969 547.37 338.187 547.37 338.457V340.481C547.37 340.75 547.589 340.969 547.858 340.969H551.882C552.152 340.969 552.37 340.75 552.37 340.481V338.457C552.37 338.187 552.152 337.969 551.882 337.969Z" fill="#3F3D56"/>
<path id="Vector_19" d="M561.882 337.969H557.858C557.589 337.969 557.37 338.187 557.37 338.457V340.481C557.37 340.75 557.589 340.969 557.858 340.969H561.882C562.152 340.969 562.37 340.75 562.37 340.481V338.457C562.37 338.187 562.152 337.969 561.882 337.969Z" fill="#3F3D56"/>
<path id="Vector_20" d="M571.882 337.969H567.858C567.589 337.969 567.37 338.187 567.37 338.457V340.481C567.37 340.75 567.589 340.969 567.858 340.969H571.882C572.152 340.969 572.37 340.75 572.37 340.481V338.457C572.37 338.187 572.152 337.969 571.882 337.969Z" fill="#3F3D56"/>
<path id="Vector_21" d="M581.882 337.969H577.858C577.589 337.969 577.37 338.187 577.37 338.457V340.481C577.37 340.75 577.589 340.969 577.858 340.969H581.882C582.152 340.969 582.37 340.75 582.37 340.481V338.457C582.37 338.187 582.152 337.969 581.882 337.969Z" fill="#3F3D56"/>
<path id="Vector_22" d="M591.882 337.969H587.858C587.589 337.969 587.37 338.187 587.37 338.457V340.481C587.37 340.75 587.589 340.969 587.858 340.969H591.882C592.152 340.969 592.37 340.75 592.37 340.481V338.457C592.37 338.187 592.152 337.969 591.882 337.969Z" fill="#3F3D56"/>
<path id="Vector_23" d="M441.764 342.969H437.74C437.471 342.969 437.252 343.187 437.252 343.457V345.481C437.252 345.75 437.471 345.969 437.74 345.969H441.764C442.033 345.969 442.252 345.75 442.252 345.481V343.457C442.252 343.187 442.033 342.969 441.764 342.969Z" fill="#3F3D56"/>
<path id="Vector_24" d="M451.764 342.969H447.74C447.471 342.969 447.252 343.187 447.252 343.457V345.481C447.252 345.75 447.471 345.969 447.74 345.969H451.764C452.033 345.969 452.252 345.75 452.252 345.481V343.457C452.252 343.187 452.033 342.969 451.764 342.969Z" fill="#3F3D56"/>
<path id="Vector_25" d="M461.764 342.969H457.74C457.471 342.969 457.252 343.187 457.252 343.457V345.481C457.252 345.75 457.471 345.969 457.74 345.969H461.764C462.033 345.969 462.252 345.75 462.252 345.481V343.457C462.252 343.187 462.033 342.969 461.764 342.969Z" fill="#3F3D56"/>
<path id="Vector_26" d="M471.764 342.969H467.74C467.471 342.969 467.252 343.187 467.252 343.457V345.481C467.252 345.75 467.471 345.969 467.74 345.969H471.764C472.033 345.969 472.252 345.75 472.252 345.481V343.457C472.252 343.187 472.033 342.969 471.764 342.969Z" fill="#3F3D56"/>
<path id="Vector_27" d="M481.764 342.969H477.74C477.471 342.969 477.252 343.187 477.252 343.457V345.481C477.252 345.75 477.471 345.969 477.74 345.969H481.764C482.033 345.969 482.252 345.75 482.252 345.481V343.457C482.252 343.187 482.033 342.969 481.764 342.969Z" fill="#3F3D56"/>
<path id="Vector_28" d="M491.764 342.969H487.74C487.471 342.969 487.252 343.187 487.252 343.457V345.481C487.252 345.75 487.471 345.969 487.74 345.969H491.764C492.033 345.969 492.252 345.75 492.252 345.481V343.457C492.252 343.187 492.033 342.969 491.764 342.969Z" fill="#3F3D56"/>
<path id="Vector_29" d="M501.764 342.969H497.74C497.471 342.969 497.252 343.187 497.252 343.457V345.481C497.252 345.75 497.471 345.969 497.74 345.969H501.764C502.033 345.969 502.252 345.75 502.252 345.481V343.457C502.252 343.187 502.033 342.969 501.764 342.969Z" fill="#3F3D56"/>
<path id="Vector_30" d="M511.764 342.969H507.74C507.471 342.969 507.252 343.187 507.252 343.457V345.481C507.252 345.75 507.471 345.969 507.74 345.969H511.764C512.033 345.969 512.252 345.75 512.252 345.481V343.457C512.252 343.187 512.033 342.969 511.764 342.969Z" fill="#3F3D56"/>
<path id="Vector_31" d="M521.764 342.969H517.74C517.47 342.969 517.252 343.187 517.252 343.457V345.481C517.252 345.75 517.47 345.969 517.74 345.969H521.764C522.033 345.969 522.252 345.75 522.252 345.481V343.457C522.252 343.187 522.033 342.969 521.764 342.969Z" fill="#3F3D56"/>
<path id="Vector_32" d="M531.764 342.969H527.74C527.47 342.969 527.252 343.187 527.252 343.457V345.481C527.252 345.75 527.47 345.969 527.74 345.969H531.764C532.033 345.969 532.252 345.75 532.252 345.481V343.457C532.252 343.187 532.033 342.969 531.764 342.969Z" fill="#3F3D56"/>
<path id="Vector_33" d="M541.764 342.969H537.74C537.47 342.969 537.252 343.187 537.252 343.457V345.481C537.252 345.75 537.47 345.969 537.74 345.969H541.764C542.033 345.969 542.252 345.75 542.252 345.481V343.457C542.252 343.187 542.033 342.969 541.764 342.969Z" fill="#3F3D56"/>
<path id="Vector_34" d="M551.764 342.969H547.74C547.47 342.969 547.252 343.187 547.252 343.457V345.481C547.252 345.75 547.47 345.969 547.74 345.969H551.764C552.033 345.969 552.252 345.75 552.252 345.481V343.457C552.252 343.187 552.033 342.969 551.764 342.969Z" fill="#3F3D56"/>
<path id="Vector_35" d="M561.764 342.969H557.74C557.47 342.969 557.252 343.187 557.252 343.457V345.481C557.252 345.75 557.47 345.969 557.74 345.969H561.764C562.033 345.969 562.252 345.75 562.252 345.481V343.457C562.252 343.187 562.033 342.969 561.764 342.969Z" fill="#3F3D56"/>
<path id="Vector_36" d="M571.764 342.969H567.74C567.47 342.969 567.252 343.187 567.252 343.457V345.481C567.252 345.75 567.47 345.969 567.74 345.969H571.764C572.033 345.969 572.252 345.75 572.252 345.481V343.457C572.252 343.187 572.033 342.969 571.764 342.969Z" fill="#3F3D56"/>
<path id="Vector_37" d="M581.764 342.969H577.74C577.47 342.969 577.252 343.187 577.252 343.457V345.481C577.252 345.75 577.47 345.969 577.74 345.969H581.764C582.033 345.969 582.252 345.75 582.252 345.481V343.457C582.252 343.187 582.033 342.969 581.764 342.969Z" fill="#3F3D56"/>
<path id="Vector_38" d="M591.764 342.969H587.74C587.47 342.969 587.252 343.187 587.252 343.457V345.481C587.252 345.75 587.47 345.969 587.74 345.969H591.764C592.033 345.969 592.252 345.75 592.252 345.481V343.457C592.252 343.187 592.033 342.969 591.764 342.969Z" fill="#3F3D56"/>
<path id="Vector_39" d="M524.764 348.969H485.74C485.471 348.969 485.252 349.187 485.252 349.457V351.481C485.252 351.75 485.471 351.969 485.74 351.969H524.764C525.033 351.969 525.252 351.75 525.252 351.481V349.457C525.252 349.187 525.033 348.969 524.764 348.969Z" fill="#3F3D56"/>
<path id="Vector_40" d="M630.399 581.986L622.689 569.596L621.149 576.677C620.879 577.917 620.609 579.177 620.359 580.427C618.169 578.556 615.839 576.826 613.56 575.167C606.56 570.086 599.563 565 592.569 559.906L594.759 572.606C596.109 580.427 597.52 588.407 600.859 595.556C601.229 596.367 601.629 597.167 602.06 597.947H634.6C634.861 597.222 635.042 596.471 635.14 595.706C635.148 595.657 635.151 595.607 635.149 595.556C635.66 590.706 632.979 586.136 630.399 581.986Z" fill="#F0F0F0"/>
<path id="Vector_41" d="M190.399 581.986L182.689 569.596L181.149 576.677C180.879 577.917 180.609 579.177 180.359 580.427C178.169 578.556 175.839 576.826 173.56 575.167C166.56 570.086 159.563 565 152.569 559.906L154.759 572.606C156.109 580.427 157.52 588.407 160.859 595.556C161.229 596.367 161.629 597.167 162.06 597.947H194.6C194.861 597.222 195.042 596.471 195.14 595.706C195.148 595.657 195.151 595.607 195.149 595.556C195.66 590.706 192.979 586.136 190.399 581.986Z" fill="#F0F0F0"/>
<path id="Vector_42" d="M808.941 599.301L533.191 599.609C532.875 599.609 532.572 599.483 532.349 599.26C532.125 599.037 532 598.734 532 598.418C532 598.102 532.125 597.799 532.349 597.576C532.572 597.353 532.875 597.227 533.191 597.227L808.941 596.92C809.256 596.92 809.559 597.046 809.783 597.269C810.006 597.492 810.131 597.795 810.131 598.111C810.131 598.427 810.006 598.729 809.783 598.953C809.559 599.176 809.256 599.301 808.941 599.301Z" fill="#CACACA"/>
<path id="Vector_43" d="M635.475 107.35H380.152C379.886 107.344 379.634 107.234 379.448 107.045C379.263 106.855 379.159 106.6 379.159 106.334C379.159 106.069 379.263 105.814 379.448 105.624C379.634 105.435 379.886 105.325 380.152 105.319H635.475C635.741 105.325 635.993 105.435 636.179 105.624C636.364 105.814 636.468 106.069 636.468 106.334C636.468 106.6 636.364 106.855 636.179 107.045C635.993 107.234 635.741 107.344 635.475 107.35V107.35Z" fill="#CACACA"/>
<path id="Vector_44" d="M397.532 100.135C400.818 100.135 403.482 97.4114 403.482 94.0519C403.482 90.6923 400.818 87.9688 397.532 87.9688C394.246 87.9688 391.582 90.6923 391.582 94.0519C391.582 97.4114 394.246 100.135 397.532 100.135Z" fill="#3A9BC5"/>
<path id="Vector_45" d="M418.088 100.135C421.374 100.135 424.039 97.4114 424.039 94.0519C424.039 90.6923 421.374 87.9688 418.088 87.9688C414.802 87.9688 412.138 90.6923 412.138 94.0519C412.138 97.4114 414.802 100.135 418.088 100.135Z" fill="#3A9BC5"/>
<path id="Vector_46" d="M438.644 100.135C441.93 100.135 444.595 97.4114 444.595 94.0519C444.595 90.6923 441.93 87.9688 438.644 87.9688C435.358 87.9688 432.694 90.6923 432.694 94.0519C432.694 97.4114 435.358 100.135 438.644 100.135Z" fill="#3A9BC5"/>
<path id="Vector_47" d="M623.099 89.4766H608.497C608.207 89.4823 607.932 89.6014 607.729 89.8081C607.527 90.0148 607.413 90.2927 607.413 90.5822C607.413 90.8717 607.527 91.1496 607.729 91.3563C607.932 91.563 608.207 91.682 608.497 91.6878H623.099C623.388 91.682 623.664 91.563 623.866 91.3563C624.069 91.1496 624.183 90.8717 624.183 90.5822C624.183 90.2927 624.069 90.0148 623.866 89.8081C623.664 89.6014 623.388 89.4823 623.099 89.4766V89.4766Z" fill="#3A9BC5"/>
<path id="Vector_48" d="M623.099 93.6268H608.497C608.207 93.6325 607.932 93.7516 607.729 93.9583C607.527 94.165 607.413 94.4429 607.413 94.7324C607.413 95.0219 607.527 95.2998 607.729 95.5065C607.932 95.7132 608.207 95.8323 608.497 95.838H623.099C623.388 95.8323 623.664 95.7132 623.866 95.5065C624.069 95.2998 624.183 95.0219 624.183 94.7324C624.183 94.4429 624.069 94.165 623.866 93.9583C623.664 93.7516 623.388 93.6325 623.099 93.6268V93.6268Z" fill="#3A9BC5"/>
<path id="Vector_49" d="M623.099 97.7715H608.497C608.207 97.7773 607.932 97.8963 607.729 98.103C607.527 98.3097 607.413 98.5877 607.413 98.8771C607.413 99.1666 607.527 99.4445 607.729 99.6513C607.932 99.858 608.207 99.977 608.497 99.9828H623.099C623.388 99.977 623.664 99.858 623.866 99.6513C624.069 99.4445 624.183 99.1666 624.183 98.8771C624.183 98.5877 624.069 98.3097 623.866 98.103C623.664 97.8963 623.388 97.7773 623.099 97.7715V97.7715Z" fill="#3A9BC5"/>
<path id="Vector_50" d="M528.428 162.668H496.524C494.128 162.668 492.185 164.61 492.185 167.007C492.185 169.403 494.128 171.346 496.524 171.346H528.428C530.825 171.346 532.767 169.403 532.767 167.007C532.767 164.61 530.825 162.668 528.428 162.668Z" fill="#DA1919"/>
<path id="Vector_51" d="M549.039 180.024H475.914C473.518 180.024 471.575 181.966 471.575 184.363C471.575 186.759 473.518 188.702 475.914 188.702H549.039C551.435 188.702 553.378 186.759 553.378 184.363C553.378 181.966 551.435 180.024 549.039 180.024Z" fill="#E6E6E6"/>
<path id="Vector_52" d="M549.039 197.379H475.914C473.518 197.379 471.575 199.322 471.575 201.718C471.575 204.115 473.518 206.057 475.914 206.057H549.039C551.435 206.057 553.378 204.115 553.378 201.718C553.378 199.322 551.435 197.379 549.039 197.379Z" fill="#E6E6E6"/>
<path id="Vector_53" d="M406.252 263.969C406.258 267.543 405.621 271.09 404.372 274.439H376.322C375.047 274.437 373.825 273.929 372.923 273.028C372.022 272.126 371.514 270.904 371.512 269.629V234.349C373.079 234.095 374.664 233.968 376.252 233.969C380.192 233.969 384.093 234.744 387.733 236.252C391.373 237.76 394.68 239.969 397.466 242.755C400.252 245.541 402.461 248.848 403.969 252.488C405.476 256.128 406.252 260.029 406.252 263.969Z" fill="#E6E6E6"/>
<g id="&#208;&#191;&#209;&#128;&#208;&#176;&#208;&#178;&#208;&#176;&#209;&#143;&#208;&#189;&#208;&#190;&#208;&#179;&#208;&#176;">
<path id="Vector_54" d="M101.479 483.961L88.516 481.633L91.326 430.523L110.459 433.959L101.479 483.961Z" fill="#E3CFD2"/>
<path id="Vector_55" d="M99.5075 497.566L59.6435 490.408L59.734 489.904C60.4731 485.789 62.8165 482.136 66.2487 479.748C69.6809 477.361 73.9208 476.435 78.0359 477.173L78.0369 477.173L86.3104 472.956L98.9045 480.921L102.384 481.546L99.5075 497.566Z" fill="black"/>
<path id="Vector_56" d="M350.908 291.862C350.488 304.012 324.648 336.792 311.058 341.492C308.748 342.292 307.398 342.732 307.398 342.732L302.668 341.302L245.388 323.972C235.358 329.872 205.438 332.872 180.888 334.372C161.348 335.562 145.198 335.802 145.198 335.802C139.434 379.643 128.073 421.58 108.908 460.862L85.9082 456.862L107.637 310.542C108.106 307.382 109.493 304.43 111.626 302.052C113.759 299.674 116.544 297.976 119.635 297.167L275.938 256.282C275.938 256.282 284.558 254.722 302.738 263.492C332.668 277.932 351.208 283.022 350.908 291.862Z" fill="#40404A"/>
</g>
<g id="&#208;&#187;&#208;&#181;&#208;&#178;&#208;&#176;&#209;&#143;&#208;&#189;&#208;&#190;&#208;&#179;&#208;&#176;">
<path id="Vector_57" d="M297.161 567.951L285.481 574.036L256.449 531.879L273.689 522.897L297.161 567.951Z" fill="#E3CFD2"/>
<path id="Vector_58" d="M303.922 579.922L268.003 598.636L267.767 598.182C265.835 594.474 265.455 590.15 266.711 586.163C267.966 582.175 270.755 578.849 274.462 576.917L274.463 576.916L278.43 568.52L293.266 567.12L296.401 565.486L303.922 579.922Z" fill="black"/>
<path id="Vector_59" d="M321.042 289.511C326.284 300.48 318.515 341.491 308.635 351.939L306.013 353.723L305.126 354.185C299.199 374.233 235.597 432.869 235.597 432.869C257.08 460.237 270.47 493.886 279.013 531.296L259.927 540.113L190.001 435.723C188.169 432.989 187.208 429.764 187.244 426.473C187.28 423.182 188.312 419.98 190.203 417.286L218.73 376.651L265.213 286.611C298.429 285.587 317.223 281.533 321.042 289.511Z" fill="#40404A"/>
</g>
<path id="Vector_60" d="M349.301 296.129C248.908 280.862 239.761 267.132 238.78 267.377L237.908 267.593L252.453 243.009L257.788 236.707L253.685 233.774L255.313 221.59C256.583 216.655 257.611 210.842 257.063 210.063C255.931 208.811 253.413 206.533 253.388 206.51L253.064 206.218L256.845 197.396L261.908 126.862L274.963 100.836L301.908 84.8621L325.658 85.1496L346.53 104.509C355.392 108.772 362.599 115.839 367.035 124.615C371.47 133.391 372.887 143.385 371.064 153.047L360.462 209.046L356.562 237.909L362.926 244.272L358.966 248.232L356.612 261.716L359.023 276.987C360.908 290.862 352.527 291.689 351.908 291.862C351.871 291.873 350.051 296.639 349.974 296.639C349.781 296.639 349.765 296.2 349.301 296.129Z" fill="#070606"/>
<g id="&#208;&#187;&#208;&#181;&#208;&#178;&#208;&#176;&#209;&#143;&#209;&#128;&#209;&#131;&#208;&#186;&#208;&#176;&#208;&#191;&#208;&#187;&#208;&#190;&#208;&#189;&#209;&#136;">
<path id="Vector_61" d="M415.873 430.015H336.384C334.253 430.012 332.211 429.165 330.705 427.659C329.198 426.152 328.351 424.11 328.349 421.98V349.251C328.351 347.12 329.198 345.078 330.705 343.572C332.211 342.065 334.253 341.218 336.384 341.215H415.873C418.003 341.218 420.046 342.065 421.552 343.572C423.058 345.078 423.906 347.12 423.908 349.251V421.98C423.906 424.11 423.058 426.152 421.552 427.659C420.046 429.165 418.003 430.012 415.873 430.015V430.015Z" fill="#3F3D56"/>
<path id="Vector_62" d="M410.286 423.318H341.971C340.08 423.316 338.266 422.563 336.929 421.226C335.591 419.888 334.839 418.075 334.837 416.184V355.047C334.839 353.155 335.591 351.342 336.929 350.004C338.266 348.667 340.08 347.914 341.971 347.912H410.286C412.177 347.914 413.99 348.667 415.328 350.004C416.665 351.342 417.418 353.155 417.42 355.047V416.184C417.418 418.075 416.665 419.888 415.328 421.226C413.99 422.563 412.177 423.316 410.286 423.318Z" fill="white"/>
<path id="Vector_63" d="M403.471 365.712H376.128H348.786C348.313 365.712 347.859 365.524 347.525 365.189C347.19 364.855 347.003 364.401 347.003 363.928C347.003 363.455 347.19 363.002 347.525 362.667C347.859 362.333 348.313 362.145 348.786 362.145H403.471C403.944 362.145 404.397 362.333 404.732 362.667C405.066 363.002 405.254 363.455 405.254 363.928C405.254 364.401 405.066 364.855 404.732 365.189C404.397 365.524 403.944 365.712 403.471 365.712Z" fill="#DA1919"/>
<path id="Vector_64" d="M403.471 372.759H348.786C348.313 372.759 347.859 372.571 347.525 372.237C347.19 371.902 347.002 371.448 347.002 370.975C347.002 370.502 347.19 370.049 347.525 369.714C347.859 369.38 348.313 369.192 348.786 369.192H403.471C403.944 369.192 404.397 369.38 404.732 369.714C405.066 370.049 405.254 370.502 405.254 370.975C405.254 371.448 405.066 371.902 404.732 372.237C404.397 372.571 403.944 372.759 403.471 372.759Z" fill="#DA1919"/>
<path id="Vector_65" d="M372.49 379.806H348.786C348.313 379.806 347.859 379.618 347.525 379.284C347.19 378.949 347.002 378.496 347.002 378.023C347.002 377.55 347.19 377.096 347.525 376.762C347.859 376.427 348.313 376.239 348.786 376.239H372.49C372.964 376.239 373.417 376.427 373.752 376.762C374.086 377.096 374.274 377.55 374.274 378.023C374.274 378.496 374.086 378.949 373.752 379.284C373.417 379.618 372.964 379.806 372.49 379.806Z" fill="#DA1919"/>
<path id="Vector_66" d="M403.471 394.566H348.786C348.313 394.566 347.859 394.378 347.525 394.044C347.19 393.709 347.003 393.255 347.003 392.782C347.003 392.309 347.19 391.856 347.525 391.521C347.859 391.187 348.313 390.999 348.786 390.999H403.471C403.944 390.999 404.397 391.187 404.732 391.521C405.066 391.856 405.254 392.309 405.254 392.782C405.254 393.255 405.066 393.709 404.732 394.044C404.397 394.378 403.944 394.566 403.471 394.566V394.566Z" fill="#E4E4E4"/>
<path id="Vector_67" d="M403.471 401.613H348.786C348.551 401.614 348.319 401.568 348.102 401.479C347.885 401.389 347.688 401.258 347.522 401.092C347.356 400.927 347.224 400.73 347.134 400.513C347.044 400.297 346.998 400.064 346.998 399.83C346.998 399.595 347.044 399.363 347.134 399.146C347.224 398.929 347.356 398.733 347.522 398.567C347.688 398.401 347.885 398.27 348.102 398.181C348.319 398.091 348.551 398.046 348.786 398.046H403.471C403.944 398.046 404.397 398.234 404.732 398.569C405.066 398.903 405.254 399.357 405.254 399.83C405.254 400.303 405.066 400.756 404.732 401.091C404.397 401.425 403.944 401.613 403.471 401.613V401.613Z" fill="#E4E4E4"/>
<path id="Vector_68" d="M372.49 408.661H348.786C348.313 408.661 347.859 408.473 347.525 408.138C347.19 407.804 347.002 407.35 347.002 406.877C347.002 406.404 347.19 405.95 347.525 405.616C347.859 405.281 348.313 405.093 348.786 405.093H372.49C372.964 405.093 373.417 405.281 373.752 405.616C374.086 405.95 374.274 406.404 374.274 406.877C374.274 407.35 374.086 407.804 373.752 408.138C373.417 408.473 372.964 408.661 372.49 408.661Z" fill="#E4E4E4"/>
<path id="Vector_69" d="M344.03 351.804C345.177 350.684 346.064 349.327 346.629 347.827C347.194 346.328 347.423 344.722 347.301 343.124C347.178 341.526 346.707 339.975 345.92 338.579C345.133 337.183 344.049 335.976 342.745 335.044L353.758 297.678L334.397 303.59L326.908 338.168C325.487 340.462 324.958 343.197 325.419 345.855C325.881 348.514 327.302 350.91 329.412 352.591C331.523 354.272 334.177 355.121 336.871 354.975C339.565 354.83 342.113 353.702 344.03 351.804V351.804Z" fill="#E3CFD2"/>
<path id="Vector_70" d="M345.818 325.877L324.891 316.49L341.678 246.78L310.416 170.894C308.871 167.143 308.171 163.097 308.365 159.045C308.559 154.993 309.643 151.033 311.539 147.447C313.436 143.861 316.098 140.736 319.338 138.294C322.578 135.853 326.316 134.155 330.286 133.32C337.459 131.821 344.933 133.228 351.069 137.233C357.205 141.238 361.502 147.514 363.017 154.683L382.029 245.15L345.818 325.877Z" fill="#070606"/>
</g>
<g id="&#208;&#191;&#209;&#128;&#208;&#176;&#208;&#178;&#208;&#176;&#209;&#143;&#209;&#128;&#209;&#131;&#208;&#186;&#208;&#176;&#209;&#129;&#209;&#130;&#208;&#181;&#208;&#187;&#208;&#181;&#209;&#132;&#208;&#190;&#208;&#189;&#208;&#190;&#208;&#188;">
<path id="Vector_71" d="M236.396 59.0006L244.959 72.3834L275.507 57.2392L291.213 52.4371C293.254 51.8132 295.095 50.6647 296.552 49.1064C298.01 47.5481 299.033 45.6345 299.519 43.5569C300.006 41.4793 299.938 39.3105 299.324 37.2671C298.709 35.2237 297.569 33.3774 296.018 31.9126V31.9126C293.719 29.742 290.666 28.5495 287.504 28.5869C284.342 28.6243 281.319 29.8886 279.072 32.1129L265.892 45.1587L236.396 59.0006Z" fill="#E3CFD2"/>
<path id="Vector_72" d="M250.847 71.7597L239.43 53.9158L196.141 72.9608C193.033 74.3284 190.33 76.4761 188.296 79.1954C186.262 81.9148 184.964 85.1137 184.53 88.482C183.995 92.6351 184.796 96.8509 186.818 100.518C188.84 104.185 191.977 107.113 195.774 108.877L264.782 139.91C269.545 142.122 274.984 142.385 279.938 140.641C284.892 138.897 288.968 135.286 291.295 130.578C292.547 128.045 293.251 125.278 293.362 122.456C293.473 119.633 292.989 116.819 291.941 114.196C290.892 111.573 289.304 109.201 287.278 107.232C285.252 105.264 282.834 103.745 280.182 102.773L228.417 84.8533L250.847 71.7597Z" fill="#070606"/>
<path id="Vector_73" d="M263.188 59.5938L270.838 27.7802C271.101 26.6921 271.785 25.7526 272.739 25.168C273.694 24.5835 274.842 24.4014 275.93 24.662L282.864 26.3291C283.952 26.592 284.892 27.2758 285.476 28.2306C286.061 29.1853 286.243 30.3329 285.982 31.4216L278.333 63.2352C278.07 64.3233 277.386 65.2628 276.431 65.8474C275.477 66.432 274.329 66.614 273.24 66.3534L266.307 64.6863C265.219 64.4234 264.279 63.7396 263.695 62.7848C263.11 61.8301 262.928 60.6825 263.188 59.5938V59.5938Z" fill="#3F3D56"/>
<path id="Vector_74" d="M276.352 26.4797C275.765 26.3393 275.146 26.4374 274.632 26.7524C274.117 27.0675 273.749 27.5737 273.607 28.1601L265.958 59.9736C265.817 60.5603 265.916 61.1787 266.231 61.6932C266.546 62.2077 267.052 62.5762 267.638 62.7179L274.572 64.385C275.159 64.5254 275.777 64.4273 276.291 64.1123C276.806 63.7973 277.174 63.291 277.316 62.7047L284.966 30.8911C285.106 30.3044 285.008 29.686 284.693 29.1715C284.378 28.657 283.871 28.2885 283.285 28.1468L276.352 26.4797Z" fill="#6C63FF"/>
</g>
<path id="Vector_75" d="M308.432 79.6565C327.186 79.6565 342.389 64.4532 342.389 45.6989C342.389 26.9447 327.186 11.7414 308.432 11.7414C289.678 11.7414 274.474 26.9447 274.474 45.6989C274.474 64.4532 289.678 79.6565 308.432 79.6565Z" fill="#E3CFD2"/>
<path id="Vector_76" d="M324.095 68.4042L325.317 61.5263C326.069 56.9651 325.288 52.2835 323.096 48.2133C320.905 44.1432 317.426 40.914 313.205 39.0306L312.156 38.5233L313.02 38.0614C313.295 37.9145 313.51 37.6759 313.627 37.3872C313.745 37.0985 313.757 36.7779 313.663 36.4809C313.568 36.1838 313.373 35.9292 313.111 35.7612C312.848 35.5932 312.535 35.5223 312.226 35.5609L311.244 35.683C310.575 35.7649 309.897 35.6516 309.291 35.3567C308.685 35.0618 308.177 34.598 307.829 34.021C307.48 33.4441 307.306 32.7788 307.327 32.1052C307.349 31.4316 307.564 30.7784 307.948 30.2245C304.558 31.6291 300.941 32.4069 297.273 32.5199C291.965 32.4799 287.353 29.8925 285.524 25.9276C285.078 24.9419 284.804 23.8874 284.713 22.8095C279.106 25.0189 276.083 31.642 276.052 31.7113L274.394 35.4105L275.103 31.4193C275.125 31.2977 277.295 19.2098 280.442 11.7103C283.825 3.64685 297.909 -0.603153 319.066 0.0692066C339.732 0.718617 344.316 24.2811 344.71 26.5609C350.581 32.2098 348.448 42.9051 346.642 48.8041C343.718 58.3573 337.947 67.8632 334.767 68.3636C334.483 68.4171 334.189 68.3851 333.922 68.2717C333.656 68.1583 333.429 67.9686 333.27 67.7264C332.952 67.2203 332.529 66.7876 332.031 66.4569C331.533 66.1262 330.971 65.905 330.381 65.808C327.811 65.4427 325.159 67.5492 325.133 67.5702L324.095 68.4042Z" fill="black"/>
<path id="Vector_77" d="M276.941 599.301L1.19066 599.609C0.875467 599.608 0.573504 599.482 0.350952 599.259C0.1284 599.036 0.00341797 598.733 0.00341797 598.418C0.00341797 598.103 0.1284 597.801 0.350952 597.577C0.573504 597.354 0.875467 597.228 1.19066 597.227L276.941 596.92C277.256 596.92 277.559 597.046 277.783 597.269C278.006 597.492 278.131 597.795 278.131 598.111C278.131 598.427 278.006 598.729 277.783 598.953C277.559 599.176 277.256 599.301 276.941 599.301Z" fill="#CACACA"/>
</g>
<defs>
<clipPath id="clip0_1_2">
<rect width="810.131" height="599.609" fill="white"/>
</clipPath>
</defs>
</svg>
