<svg width="978" height="867" viewBox="0 0 978 867" fill="none" xmlns="http://www.w3.org/2000/svg">
<path id="Vector 1" d="M402 133L611.5 73.5C609.333 74.1153 615.6 64.1768 658 19.5C711 -36.3461 706 26.5 863 245.5C1020 464.5 867.5 288 919.5 459C971.5 630 939.5 514 972.5 756.5C1005.5 999 854.5 758.5 690 799C525.5 839.5 485 788 155 773.5C-175 759 130.5 763.5 101.5 577C72.5 390.5 125 449.5 306.5 206C390.5 -7.60002 405.167 68.3333 402 133Z" fill="url(#paint0_linear_1_84)"/>
<defs>
<linearGradient id="paint0_linear_1_84" x1="488.744" y1="0.25528" x2="488.744" y2="866.393" gradientUnits="userSpaceOnUse">
<stop stop-color="#D79C9C"/>
<stop offset="0.0001" stop-color="#F3ECEC" stop-opacity="0.4"/>
<stop offset="1" stop-color="#221E1E" stop-opacity="0.04"/>
</linearGradient>
</defs>
</svg>
